<mxfile host="Electron" modified="2024-06-30T11:58:45.308Z" agent="Mozilla/5.0 (Macintosh; Intel Mac OS X 10_15_7) AppleWebKit/537.36 (KHTML, like Gecko) draw.io/21.6.8 Chrome/114.0.5735.289 Electron/25.5.0 Safari/537.36" etag="7hEaaJUfNfXNl6aN_MXg" version="21.6.8" type="device">
  <diagram name="Page-1" id="S0oaH0rmi0bcgbm-uESL">
    <mxGraphModel dx="1434" dy="854" grid="1" gridSize="10" guides="1" tooltips="1" connect="1" arrows="1" fold="1" page="1" pageScale="1" pageWidth="827" pageHeight="1169" math="0" shadow="0">
      <root>
        <mxCell id="0" />
        <mxCell id="1" parent="0" />
        <mxCell id="yK2w6qgRsSuA4FKJjxnG-1" value="&lt;h1 style=&quot;font-size: 20px;&quot;&gt;&lt;span style=&quot;background-color: initial; font-size: 20px;&quot;&gt;Functional Reqs&lt;/span&gt;&lt;/h1&gt;&lt;span style=&quot;background-color: initial; font-size: 20px;&quot;&gt;1. Search events&lt;/span&gt;&lt;br style=&quot;font-size: 20px;&quot;&gt;&lt;span style=&quot;background-color: initial; font-size: 20px;&quot;&gt;2. View events&lt;/span&gt;&lt;br style=&quot;font-size: 20px;&quot;&gt;&lt;span style=&quot;background-color: initial; font-size: 20px;&quot;&gt;3. Book tickets&lt;/span&gt;&lt;br style=&quot;font-size: 20px;&quot;&gt;&lt;span style=&quot;background-color: initial; font-size: 20px;&quot;&gt;4. Confirmation - email/whatsapp&lt;/span&gt;" style="text;html=1;strokeColor=default;fillColor=none;spacing=5;spacingTop=-20;whiteSpace=wrap;overflow=hidden;rounded=0;fontSize=20;" parent="1" vertex="1">
          <mxGeometry x="40" y="70" width="320" height="170" as="geometry" />
        </mxCell>
        <mxCell id="yK2w6qgRsSuA4FKJjxnG-2" value="&lt;h1 style=&quot;font-size: 20px;&quot;&gt;&lt;span style=&quot;background-color: initial; font-size: 20px;&quot;&gt;Non Functional Reqs&lt;/span&gt;&lt;/h1&gt;&lt;span style=&quot;background-color: initial; font-size: 20px;&quot;&gt;1. strong consistency for booking tickets and payments&lt;br style=&quot;font-size: 20px;&quot;&gt;2. high availability for searching, viewing events&lt;/span&gt;&lt;br style=&quot;font-size: 20px;&quot;&gt;&lt;span style=&quot;background-color: initial; font-size: 20px;&quot;&gt;3. Read : Write = 100 : 1 (search v/s booking)&lt;/span&gt;&lt;br style=&quot;font-size: 20px;&quot;&gt;&lt;span style=&quot;background-color: initial; font-size: 20px;&quot;&gt;4. Scalability - handle popular events&amp;nbsp;&amp;nbsp;&lt;/span&gt;&lt;br style=&quot;font-size: 20px;&quot;&gt;&lt;span style=&quot;background-color: initial; font-size: 20px;&quot;&gt;5. Monitoring or health checks&lt;/span&gt;" style="text;html=1;strokeColor=default;fillColor=none;spacing=5;spacingTop=-20;whiteSpace=wrap;overflow=hidden;rounded=0;fontSize=20;" parent="1" vertex="1">
          <mxGeometry x="380" y="70" width="510" height="180" as="geometry" />
        </mxCell>
        <mxCell id="yK2w6qgRsSuA4FKJjxnG-3" value="&lt;h1 style=&quot;font-size: 20px;&quot;&gt;&lt;span style=&quot;background-color: initial; font-size: 20px;&quot;&gt;Scale&lt;/span&gt;&lt;/h1&gt;&lt;span style=&quot;background-color: initial; font-size: 20px;&quot;&gt;1.&amp;nbsp;&lt;/span&gt;&lt;br style=&quot;font-size: 20px;&quot;&gt;&lt;span style=&quot;background-color: initial; font-size: 20px;&quot;&gt;2.&amp;nbsp;&lt;/span&gt;&lt;br style=&quot;font-size: 20px;&quot;&gt;&lt;span style=&quot;background-color: initial; font-size: 20px;&quot;&gt;3.&amp;nbsp;&lt;/span&gt;&lt;br style=&quot;font-size: 20px;&quot;&gt;&lt;span style=&quot;background-color: initial; font-size: 20px;&quot;&gt;4.&amp;nbsp;&lt;/span&gt;" style="text;html=1;strokeColor=none;fillColor=none;spacing=5;spacingTop=-20;whiteSpace=wrap;overflow=hidden;rounded=0;fontSize=20;" parent="1" vertex="1">
          <mxGeometry x="370" y="290" width="440" height="160" as="geometry" />
        </mxCell>
        <mxCell id="yK2w6qgRsSuA4FKJjxnG-4" value="TicketMaster" style="text;html=1;align=center;verticalAlign=middle;resizable=0;points=[];autosize=1;strokeColor=none;fillColor=none;fontSize=20;fontStyle=1" parent="1" vertex="1">
          <mxGeometry x="320" y="5" width="150" height="40" as="geometry" />
        </mxCell>
        <mxCell id="yK2w6qgRsSuA4FKJjxnG-5" value="&lt;h1 style=&quot;font-size: 20px;&quot;&gt;&lt;span style=&quot;background-color: initial; font-size: 20px;&quot;&gt;Core entities&lt;/span&gt;&lt;/h1&gt;&lt;span style=&quot;background-color: initial; font-size: 20px;&quot;&gt;1. event&lt;/span&gt;&lt;br style=&quot;font-size: 20px;&quot;&gt;&lt;span style=&quot;background-color: initial; font-size: 20px;&quot;&gt;2. venue&lt;/span&gt;&lt;br style=&quot;font-size: 20px;&quot;&gt;&lt;span style=&quot;background-color: initial; font-size: 20px;&quot;&gt;3. performer&lt;/span&gt;&lt;br style=&quot;font-size: 20px;&quot;&gt;&lt;span style=&quot;background-color: initial; font-size: 20px;&quot;&gt;4. inventory&lt;br style=&quot;font-size: 20px;&quot;&gt;5. booking&lt;br style=&quot;font-size: 20px;&quot;&gt;&lt;/span&gt;" style="text;html=1;strokeColor=none;fillColor=none;spacing=5;spacingTop=-20;whiteSpace=wrap;overflow=hidden;rounded=0;fontSize=20;" parent="1" vertex="1">
          <mxGeometry x="70" y="290" width="230" height="180" as="geometry" />
        </mxCell>
        <mxCell id="yK2w6qgRsSuA4FKJjxnG-6" value="&lt;h1 style=&quot;font-size: 20px;&quot;&gt;&lt;span style=&quot;background-color: initial; font-size: 20px;&quot;&gt;API&lt;/span&gt;&lt;/h1&gt;&lt;span style=&quot;background-color: initial; font-size: 20px;&quot;&gt;1. get event &lt;b&gt;GET /events/:id -&amp;gt; event, performer, venue, tickets&lt;/b&gt;&lt;/span&gt;&lt;br style=&quot;font-size: 20px;&quot;&gt;2. search &lt;b&gt;GET /search?loc={location}&amp;amp;type={type}&amp;amp;date={date}&lt;/b&gt;&lt;br style=&quot;font-size: 20px;&quot;&gt;3. book &lt;b&gt;POST /booking/reserve&lt;/b&gt;&lt;br&gt;body: {&lt;br&gt;&lt;span style=&quot;&quot;&gt;&lt;span style=&quot;white-space: pre;&quot;&gt;&amp;nbsp;&amp;nbsp;&amp;nbsp;&amp;nbsp;&lt;/span&gt;&lt;/span&gt;seats: [],&lt;br&gt;&lt;span style=&quot;&quot;&gt;&lt;span style=&quot;white-space: pre;&quot;&gt;&amp;nbsp;&amp;nbsp;&amp;nbsp;&amp;nbsp;&lt;/span&gt;&lt;/span&gt;ticketId&lt;br&gt;}&lt;br&gt;&lt;br&gt;4. book&amp;nbsp;&lt;b style=&quot;border-color: var(--border-color);&quot;&gt;PUT /booking/confirm&lt;/b&gt;&lt;br style=&quot;border-color: var(--border-color);&quot;&gt;body: {&lt;br style=&quot;border-color: var(--border-color);&quot;&gt;&#x9;seats: [],&lt;br style=&quot;border-color: var(--border-color);&quot;&gt;&lt;span style=&quot;border-color: var(--border-color);&quot;&gt;&lt;span style=&quot;white-space: pre;&quot;&gt;&amp;nbsp;&amp;nbsp;&amp;nbsp;&amp;nbsp;&lt;/span&gt;&lt;/span&gt;paymentDetails&lt;br style=&quot;border-color: var(--border-color);&quot;&gt;}&lt;br style=&quot;font-size: 20px;&quot;&gt;&lt;span style=&quot;background-color: initial; font-size: 20px;&quot;&gt;&lt;br style=&quot;font-size: 20px;&quot;&gt;&lt;/span&gt;" style="text;html=1;strokeColor=default;fillColor=none;spacing=5;spacingTop=-20;whiteSpace=wrap;overflow=hidden;rounded=0;fontSize=20;" parent="1" vertex="1">
          <mxGeometry x="50" y="510" width="620" height="370" as="geometry" />
        </mxCell>
        <mxCell id="VD55c0qXUjN7wgZhX2C2-1" value="client&lt;br style=&quot;font-size: 14px;&quot;&gt;[web, mobile, tablet]" style="rounded=1;whiteSpace=wrap;html=1;fontSize=14;" vertex="1" parent="1">
          <mxGeometry x="780" y="740" width="120" height="60" as="geometry" />
        </mxCell>
        <mxCell id="VD55c0qXUjN7wgZhX2C2-6" style="edgeStyle=orthogonalEdgeStyle;rounded=0;orthogonalLoop=1;jettySize=auto;html=1;" edge="1" parent="1" source="VD55c0qXUjN7wgZhX2C2-2" target="VD55c0qXUjN7wgZhX2C2-3">
          <mxGeometry relative="1" as="geometry">
            <Array as="points">
              <mxPoint x="1190" y="760" />
              <mxPoint x="1190" y="780" />
            </Array>
          </mxGeometry>
        </mxCell>
        <mxCell id="VD55c0qXUjN7wgZhX2C2-11" style="edgeStyle=orthogonalEdgeStyle;rounded=0;orthogonalLoop=1;jettySize=auto;html=1;" edge="1" parent="1" source="VD55c0qXUjN7wgZhX2C2-2" target="VD55c0qXUjN7wgZhX2C2-10">
          <mxGeometry relative="1" as="geometry">
            <Array as="points">
              <mxPoint x="1220" y="860" />
              <mxPoint x="1220" y="950" />
            </Array>
          </mxGeometry>
        </mxCell>
        <mxCell id="VD55c0qXUjN7wgZhX2C2-12" value="reserve()" style="edgeLabel;html=1;align=center;verticalAlign=middle;resizable=0;points=[];fontSize=19;" vertex="1" connectable="0" parent="VD55c0qXUjN7wgZhX2C2-11">
          <mxGeometry x="-0.1556" y="1" relative="1" as="geometry">
            <mxPoint as="offset" />
          </mxGeometry>
        </mxCell>
        <mxCell id="VD55c0qXUjN7wgZhX2C2-2" value="&lt;b style=&quot;font-size: 14px;&quot;&gt;API G/w&lt;/b&gt;&lt;br style=&quot;font-size: 14px;&quot;&gt;- auth&lt;br style=&quot;font-size: 14px;&quot;&gt;-routing&lt;br style=&quot;font-size: 14px;&quot;&gt;- rate limit" style="rounded=1;whiteSpace=wrap;html=1;align=center;fontSize=14;" vertex="1" parent="1">
          <mxGeometry x="1010" y="560" width="80" height="420" as="geometry" />
        </mxCell>
        <mxCell id="VD55c0qXUjN7wgZhX2C2-5" style="edgeStyle=orthogonalEdgeStyle;rounded=0;orthogonalLoop=1;jettySize=auto;html=1;" edge="1" parent="1" source="VD55c0qXUjN7wgZhX2C2-3" target="VD55c0qXUjN7wgZhX2C2-4">
          <mxGeometry relative="1" as="geometry" />
        </mxCell>
        <mxCell id="VD55c0qXUjN7wgZhX2C2-3" value="Event Service" style="rounded=1;whiteSpace=wrap;html=1;fontSize=14;" vertex="1" parent="1">
          <mxGeometry x="1270" y="740" width="120" height="60" as="geometry" />
        </mxCell>
        <mxCell id="VD55c0qXUjN7wgZhX2C2-29" style="edgeStyle=orthogonalEdgeStyle;rounded=0;orthogonalLoop=1;jettySize=auto;html=1;entryX=0.5;entryY=1;entryDx=0;entryDy=0;entryPerimeter=0;" edge="1" parent="1" source="VD55c0qXUjN7wgZhX2C2-4" target="VD55c0qXUjN7wgZhX2C2-23">
          <mxGeometry relative="1" as="geometry" />
        </mxCell>
        <mxCell id="VD55c0qXUjN7wgZhX2C2-30" value="&lt;b style=&quot;font-size: 15px;&quot;&gt;CDC &lt;/b&gt;&lt;span style=&quot;font-size: 15px;&quot;&gt;(updates/delete)&lt;/span&gt;" style="edgeLabel;html=1;align=center;verticalAlign=middle;resizable=0;points=[];fontSize=15;" vertex="1" connectable="0" parent="VD55c0qXUjN7wgZhX2C2-29">
          <mxGeometry x="-0.2" y="-2" relative="1" as="geometry">
            <mxPoint as="offset" />
          </mxGeometry>
        </mxCell>
        <mxCell id="VD55c0qXUjN7wgZhX2C2-4" value="database" style="shape=cylinder3;whiteSpace=wrap;html=1;boundedLbl=1;backgroundOutline=1;size=15;fontStyle=1" vertex="1" parent="1">
          <mxGeometry x="1540" y="760" width="60" height="80" as="geometry" />
        </mxCell>
        <mxCell id="VD55c0qXUjN7wgZhX2C2-22" style="edgeStyle=orthogonalEdgeStyle;rounded=0;orthogonalLoop=1;jettySize=auto;html=1;entryX=1;entryY=0.25;entryDx=0;entryDy=0;startArrow=classic;startFill=1;endArrow=none;endFill=0;" edge="1" parent="1" source="VD55c0qXUjN7wgZhX2C2-7" target="VD55c0qXUjN7wgZhX2C2-2">
          <mxGeometry relative="1" as="geometry" />
        </mxCell>
        <mxCell id="VD55c0qXUjN7wgZhX2C2-25" style="edgeStyle=orthogonalEdgeStyle;rounded=0;orthogonalLoop=1;jettySize=auto;html=1;entryX=0;entryY=0.583;entryDx=0;entryDy=0;entryPerimeter=0;" edge="1" parent="1" source="VD55c0qXUjN7wgZhX2C2-7" target="VD55c0qXUjN7wgZhX2C2-23">
          <mxGeometry relative="1" as="geometry" />
        </mxCell>
        <mxCell id="VD55c0qXUjN7wgZhX2C2-7" value="Search Service" style="rounded=1;whiteSpace=wrap;html=1;fontSize=14;" vertex="1" parent="1">
          <mxGeometry x="1270" y="565" width="120" height="60" as="geometry" />
        </mxCell>
        <mxCell id="VD55c0qXUjN7wgZhX2C2-9" value="" style="endArrow=classic;startArrow=classic;html=1;rounded=0;exitX=1;exitY=0.5;exitDx=0;exitDy=0;entryX=0;entryY=0.5;entryDx=0;entryDy=0;" edge="1" parent="1" source="VD55c0qXUjN7wgZhX2C2-1" target="VD55c0qXUjN7wgZhX2C2-2">
          <mxGeometry width="50" height="50" relative="1" as="geometry">
            <mxPoint x="1100" y="860" as="sourcePoint" />
            <mxPoint x="1150" y="810" as="targetPoint" />
          </mxGeometry>
        </mxCell>
        <mxCell id="VD55c0qXUjN7wgZhX2C2-13" style="edgeStyle=orthogonalEdgeStyle;rounded=0;orthogonalLoop=1;jettySize=auto;html=1;entryX=0.5;entryY=1;entryDx=0;entryDy=0;entryPerimeter=0;" edge="1" parent="1" source="VD55c0qXUjN7wgZhX2C2-10" target="VD55c0qXUjN7wgZhX2C2-4">
          <mxGeometry relative="1" as="geometry" />
        </mxCell>
        <mxCell id="VD55c0qXUjN7wgZhX2C2-37" style="edgeStyle=orthogonalEdgeStyle;rounded=0;orthogonalLoop=1;jettySize=auto;html=1;exitX=1;exitY=1;exitDx=0;exitDy=0;" edge="1" parent="1" source="VD55c0qXUjN7wgZhX2C2-10" target="VD55c0qXUjN7wgZhX2C2-36">
          <mxGeometry relative="1" as="geometry" />
        </mxCell>
        <mxCell id="VD55c0qXUjN7wgZhX2C2-10" value="Booking Service" style="rounded=1;whiteSpace=wrap;html=1;fontSize=14;" vertex="1" parent="1">
          <mxGeometry x="1310" y="920" width="120" height="60" as="geometry" />
        </mxCell>
        <mxCell id="VD55c0qXUjN7wgZhX2C2-21" style="edgeStyle=orthogonalEdgeStyle;rounded=0;orthogonalLoop=1;jettySize=auto;html=1;startArrow=classic;startFill=1;" edge="1" parent="1" source="VD55c0qXUjN7wgZhX2C2-14" target="VD55c0qXUjN7wgZhX2C2-15">
          <mxGeometry relative="1" as="geometry" />
        </mxCell>
        <mxCell id="VD55c0qXUjN7wgZhX2C2-14" value="Payments Service" style="rounded=1;whiteSpace=wrap;html=1;fontSize=14;" vertex="1" parent="1">
          <mxGeometry x="1310" y="1040" width="120" height="60" as="geometry" />
        </mxCell>
        <mxCell id="VD55c0qXUjN7wgZhX2C2-15" value="Paypal" style="ellipse;shape=cloud;whiteSpace=wrap;html=1;" vertex="1" parent="1">
          <mxGeometry x="1310" y="1150" width="120" height="80" as="geometry" />
        </mxCell>
        <mxCell id="VD55c0qXUjN7wgZhX2C2-17" value="" style="endArrow=classic;html=1;rounded=0;entryX=0.25;entryY=0;entryDx=0;entryDy=0;exitX=0.25;exitY=1;exitDx=0;exitDy=0;" edge="1" parent="1" source="VD55c0qXUjN7wgZhX2C2-10" target="VD55c0qXUjN7wgZhX2C2-14">
          <mxGeometry width="50" height="50" relative="1" as="geometry">
            <mxPoint x="1190" y="950" as="sourcePoint" />
            <mxPoint x="1240" y="900" as="targetPoint" />
          </mxGeometry>
        </mxCell>
        <mxCell id="VD55c0qXUjN7wgZhX2C2-18" value="" style="endArrow=classic;html=1;rounded=0;entryX=0.75;entryY=1;entryDx=0;entryDy=0;exitX=0.75;exitY=0;exitDx=0;exitDy=0;" edge="1" parent="1" source="VD55c0qXUjN7wgZhX2C2-14" target="VD55c0qXUjN7wgZhX2C2-10">
          <mxGeometry width="50" height="50" relative="1" as="geometry">
            <mxPoint x="1350" y="990" as="sourcePoint" />
            <mxPoint x="1350" y="1050" as="targetPoint" />
          </mxGeometry>
        </mxCell>
        <mxCell id="VD55c0qXUjN7wgZhX2C2-19" value="confirm()" style="edgeLabel;html=1;align=center;verticalAlign=middle;resizable=0;points=[];fontSize=19;" vertex="1" connectable="0" parent="1">
          <mxGeometry x="1231" y="894" as="geometry">
            <mxPoint x="-13" y="15" as="offset" />
          </mxGeometry>
        </mxCell>
        <mxCell id="VD55c0qXUjN7wgZhX2C2-20" value="select tickets and lock" style="edgeLabel;html=1;align=center;verticalAlign=middle;resizable=0;points=[];fontSize=19;" vertex="1" connectable="0" parent="1">
          <mxGeometry x="1210" y="894" as="geometry">
            <mxPoint x="358" y="5" as="offset" />
          </mxGeometry>
        </mxCell>
        <mxCell id="VD55c0qXUjN7wgZhX2C2-23" value="Elasticsearch&lt;br&gt;&lt;br&gt;&lt;span style=&quot;font-weight: normal;&quot;&gt;[AWS Opensearch, allows caching]&lt;/span&gt;" style="shape=cylinder3;whiteSpace=wrap;html=1;boundedLbl=1;backgroundOutline=1;size=15;fontStyle=1" vertex="1" parent="1">
          <mxGeometry x="1520" y="525" width="100" height="120" as="geometry" />
        </mxCell>
        <mxCell id="VD55c0qXUjN7wgZhX2C2-26" value="&lt;b&gt;use inverted indexes the data based on on &lt;br style=&quot;font-size: 14px;&quot;&gt;various search parameters&lt;/b&gt;&lt;br style=&quot;font-size: 14px;&quot;&gt;1. performer, title of event&lt;br style=&quot;font-size: 14px;&quot;&gt;2. geo location (ELK supports geo locations)&lt;br style=&quot;font-size: 14px;&quot;&gt;3. genre - concert, drama, tech event etc&lt;br style=&quot;font-size: 14px;&quot;&gt;&lt;div style=&quot;font-size: 14px;&quot;&gt;&lt;br style=&quot;font-size: 14px;&quot;&gt;&lt;/div&gt;" style="text;html=1;align=left;verticalAlign=middle;resizable=0;points=[];autosize=1;strokeColor=none;fillColor=none;fontSize=14;" vertex="1" parent="1">
          <mxGeometry x="1640" y="540" width="310" height="110" as="geometry" />
        </mxCell>
        <mxCell id="VD55c0qXUjN7wgZhX2C2-28" value="&lt;b&gt;Pushing data to Elastic&lt;br&gt;&lt;/b&gt;&lt;br&gt;1. Event Service can push event data based on &lt;br&gt;CRUD operations&lt;br&gt;(1.1) This is not efficient, cause if DB succeeds ELK might fail or vice versa.&lt;br style=&quot;font-size: 14px;&quot;&gt;&lt;br&gt;&lt;b&gt;2. CDC - changed data capture (style of data movement)&lt;/b&gt;&lt;br&gt;(https://www.qlik.com/us/change-data-capture/cdc-change-data-capture#46d6912a-a40c-5f18-8a04-7cf677158a2b)&lt;br&gt;&lt;br style=&quot;font-size: 14px;&quot;&gt;(2.1) CDC - capture every changes in database, and move it to another stream&lt;br&gt;(2.2) Log based CDC [very efficient, read the DB logs and utilize the changes]&lt;br&gt;(2.3) Based on some timestamp in the tables, keep querying&lt;br&gt;(2.4) Database triggers - create/update/delete =&amp;gt; push changes to downstream&lt;br style=&quot;font-size: 14px;&quot;&gt;&lt;div style=&quot;font-size: 14px;&quot;&gt;&lt;br style=&quot;font-size: 14px;&quot;&gt;&lt;/div&gt;&lt;div style=&quot;font-size: 14px;&quot;&gt;No queue needed, because Event can be in order of hundreds or thousands max.&lt;/div&gt;&lt;div style=&quot;font-size: 14px;&quot;&gt;ELK can handle so many events through ReST API&lt;/div&gt;" style="text;html=1;align=left;verticalAlign=middle;resizable=0;points=[];autosize=1;strokeColor=none;fillColor=none;fontSize=14;" vertex="1" parent="1">
          <mxGeometry x="1960" y="635" width="740" height="280" as="geometry" />
        </mxCell>
        <mxCell id="VD55c0qXUjN7wgZhX2C2-31" value="CDN" style="ellipse;shape=cloud;whiteSpace=wrap;html=1;" vertex="1" parent="1">
          <mxGeometry x="1280" y="430" width="120" height="80" as="geometry" />
        </mxCell>
        <mxCell id="VD55c0qXUjN7wgZhX2C2-34" style="edgeStyle=orthogonalEdgeStyle;rounded=0;orthogonalLoop=1;jettySize=auto;html=1;entryX=0;entryY=1;entryDx=0;entryDy=0;" edge="1" parent="1" source="VD55c0qXUjN7wgZhX2C2-33" target="VD55c0qXUjN7wgZhX2C2-10">
          <mxGeometry relative="1" as="geometry" />
        </mxCell>
        <mxCell id="VD55c0qXUjN7wgZhX2C2-35" style="edgeStyle=orthogonalEdgeStyle;rounded=0;orthogonalLoop=1;jettySize=auto;html=1;startArrow=classic;startFill=1;endArrow=none;endFill=0;" edge="1" parent="1" source="VD55c0qXUjN7wgZhX2C2-33" target="VD55c0qXUjN7wgZhX2C2-2">
          <mxGeometry relative="1" as="geometry" />
        </mxCell>
        <mxCell id="VD55c0qXUjN7wgZhX2C2-33" value="virtual waiting queue&lt;br&gt;&lt;br&gt;[REDIS sorted-set]" style="rounded=1;whiteSpace=wrap;html=1;" vertex="1" parent="1">
          <mxGeometry x="1121" y="1000" width="120" height="60" as="geometry" />
        </mxCell>
        <mxCell id="VD55c0qXUjN7wgZhX2C2-36" value="Ticket Lock&lt;br&gt;&lt;br&gt;[REDIS]" style="rounded=1;whiteSpace=wrap;html=1;" vertex="1" parent="1">
          <mxGeometry x="1510" y="1010" width="120" height="60" as="geometry" />
        </mxCell>
        <mxCell id="VD55c0qXUjN7wgZhX2C2-38" value="Search Service" style="rounded=1;whiteSpace=wrap;html=1;fontSize=14;" vertex="1" parent="1">
          <mxGeometry x="1280" y="575" width="120" height="60" as="geometry" />
        </mxCell>
        <mxCell id="VD55c0qXUjN7wgZhX2C2-39" value="Event Service" style="rounded=1;whiteSpace=wrap;html=1;fontSize=14;" vertex="1" parent="1">
          <mxGeometry x="1280" y="750" width="120" height="60" as="geometry" />
        </mxCell>
        <mxCell id="VD55c0qXUjN7wgZhX2C2-40" value="Booking Service" style="rounded=1;whiteSpace=wrap;html=1;fontSize=14;" vertex="1" parent="1">
          <mxGeometry x="1320" y="930" width="120" height="60" as="geometry" />
        </mxCell>
        <mxCell id="VD55c0qXUjN7wgZhX2C2-41" value="Payments Service" style="rounded=1;whiteSpace=wrap;html=1;fontSize=14;" vertex="1" parent="1">
          <mxGeometry x="1320" y="1050" width="120" height="60" as="geometry" />
        </mxCell>
        <mxCell id="VD55c0qXUjN7wgZhX2C2-42" value="virtual waiting queue&lt;br&gt;&lt;br&gt;[REDIS sorted-set]" style="rounded=1;whiteSpace=wrap;html=1;fillColor=#d80073;fontColor=#ffffff;strokeColor=#A50040;" vertex="1" parent="1">
          <mxGeometry x="1131" y="1010" width="120" height="60" as="geometry" />
        </mxCell>
        <mxCell id="VD55c0qXUjN7wgZhX2C2-43" value="Ticket Lock&lt;br&gt;&lt;br&gt;[REDIS]" style="rounded=1;whiteSpace=wrap;html=1;fillColor=#d80073;fontColor=#ffffff;strokeColor=#A50040;" vertex="1" parent="1">
          <mxGeometry x="1520" y="1020" width="120" height="60" as="geometry" />
        </mxCell>
        <mxCell id="VD55c0qXUjN7wgZhX2C2-44" value="database" style="shape=cylinder3;whiteSpace=wrap;html=1;boundedLbl=1;backgroundOutline=1;size=15;fontStyle=1" vertex="1" parent="1">
          <mxGeometry x="1620" y="760" width="60" height="80" as="geometry" />
        </mxCell>
        <mxCell id="VD55c0qXUjN7wgZhX2C2-45" value="database&lt;br&gt;(replica)" style="shape=cylinder3;whiteSpace=wrap;html=1;boundedLbl=1;backgroundOutline=1;size=15;fontStyle=1" vertex="1" parent="1">
          <mxGeometry x="1630" y="770" width="60" height="80" as="geometry" />
        </mxCell>
      </root>
    </mxGraphModel>
  </diagram>
</mxfile>
